<svg viewBox="0 0 127 157" fill="none" xmlns="http://www.w3.org/2000/svg"><path fill-rule="evenodd" clip-rule="evenodd" d="M63.4993 0C98.3457 0 126.682 28.3366 126.682 63.1829V128.919C126.682 144.491 114.173 157 98.601 157H28.3977C12.8253 157 0.316406 144.491 0.316406 128.919V63.1829C0.316406 28.3366 28.653 0 63.4993 0Z" fill="#DB8E73"/><path fill-rule="evenodd" clip-rule="evenodd" d="M88.2619 35.7397C98.0904 35.7397 106.004 43.6536 106.004 53.482V67.2674C106.004 77.0958 98.0904 85.0097 88.2619 85.0097C78.4335 85.0097 70.5197 77.0958 70.5197 67.2674V53.482C70.6473 43.6536 78.5611 35.7397 88.2619 35.7397Z" fill="white"/><path fill-rule="evenodd" clip-rule="evenodd" d="M41.0343 35.7397C31.2058 35.7397 23.292 43.6536 23.292 53.482V67.2674C23.292 77.0958 31.2058 85.0097 41.0343 85.0097C50.8628 85.0097 58.7766 77.0958 58.7766 67.2674V53.482C58.7766 43.6536 50.8628 35.7397 41.0343 35.7397Z" fill="white"/><path fill-rule="evenodd" clip-rule="evenodd" d="M44.2254 48.2488C40.1408 48.2488 36.6945 51.5675 36.6945 55.7797V65.0976C36.6945 69.1821 40.0132 72.6285 44.2254 72.6285C48.3099 72.6285 51.7562 69.3098 51.7562 65.0976V55.7797C51.6286 51.5675 48.3099 48.2488 44.2254 48.2488Z" fill="#4C4B4C"/><path fill-rule="evenodd" clip-rule="evenodd" d="M84.4327 48.2488C80.3481 48.2488 76.9018 51.5675 76.9018 55.7797V65.0976C76.9018 69.1821 80.2205 72.6285 84.4327 72.6285C88.5172 72.6285 91.9636 69.3098 91.9636 65.0976V55.7797C91.8359 51.5675 88.5172 48.2488 84.4327 48.2488Z" fill="#4C4B4C"/><path opacity="0.7046" fill-rule="evenodd" clip-rule="evenodd" d="M111.365 88.3285H79.4548C76.902 88.3285 74.6044 87.3074 72.9451 85.648C71.2857 83.9887 70.2646 81.6911 70.2646 79.1382C70.2646 76.5854 71.2857 74.2878 72.9451 72.6285C74.6044 70.9691 76.902 69.948 79.4548 69.948H111.365C113.918 69.948 116.216 70.9691 117.875 72.6285C119.535 74.2878 120.556 76.5854 120.556 79.1382C120.556 81.6911 119.535 83.9887 117.875 85.648C116.216 87.3074 113.918 88.3285 111.365 88.3285Z" fill="white"/><path d="M111.365 72.7561C114.939 72.7561 117.747 75.5643 117.747 79.1382C117.747 82.7122 114.939 85.5204 111.365 85.5204H79.4546C75.8806 85.5204 73.0725 82.7122 73.0725 79.1382C73.0725 75.5643 75.8806 72.7561 79.4546 72.7561H111.365ZM111.365 66.374H79.4546C72.4343 66.374 66.6904 72.1179 66.6904 79.1382C66.6904 86.1586 72.4343 91.9025 79.4546 91.9025H111.365C118.386 91.9025 124.129 86.1586 124.129 79.1382C124.129 72.1179 118.386 66.374 111.365 66.374Z" fill="#6B5339"/><path opacity="0.7046" fill-rule="evenodd" clip-rule="evenodd" d="M51.3735 88.3285H19.4629C16.9101 88.3285 14.6125 87.3074 12.9532 85.648C11.2938 83.9887 10.2727 81.6911 10.2727 79.1382C10.2727 76.5854 11.2938 74.2878 12.9532 72.6285C14.6125 70.9691 16.9101 69.948 19.4629 69.948H51.3735C53.9264 69.948 56.2239 70.9691 57.8833 72.6285C59.5426 74.2878 60.5638 76.5854 60.5638 79.1382C60.5638 81.6911 59.5426 83.9887 57.8833 85.648C56.2239 87.3074 53.9264 88.3285 51.3735 88.3285Z" fill="white"/><path d="M51.3733 72.7561C54.9473 72.7561 57.7554 75.5643 57.7554 79.1382C57.7554 82.7122 54.9473 85.5204 51.3733 85.5204H19.4627C15.8888 85.5204 13.0806 82.7122 13.0806 79.1382C13.0806 75.5643 15.8888 72.7561 19.4627 72.7561H51.3733ZM51.3733 66.374H19.4627C12.4424 66.374 6.69852 72.1179 6.69852 79.1382C6.69852 86.1586 12.4424 91.9025 19.4627 91.9025H51.3733C58.3936 91.9025 64.1375 86.1586 64.1375 79.1382C64.1375 72.1179 58.3936 66.374 51.3733 66.374Z" fill="#6B5339"/></svg>