<svg width="24" height="24" viewBox="0 0 24 24" fill="none" xmlns="http://www.w3.org/2000/svg"><path fill-rule="evenodd" clip-rule="evenodd" d="M19.0299 2.99373C19.6 3.13627 20 3.64856 20 4.23627L20.9755 14.9673C20.9761 14.9736 20.9814 14.9785 20.9877 14.9785C20.9945 14.9785 21 14.9839 21 14.9907V15.2363V15.8377C21 17.1751 20.3316 18.4241 19.2188 19.1659L18 19.9785L14.2188 22.4993C12.8752 23.395 11.1248 23.395 9.7812 22.4993L6 19.9785L4.7812 19.1659C3.6684 18.4241 3 17.1751 3 15.8377V15.2363V14.9907C3 14.9839 3.00548 14.9785 3.01225 14.9785C3.01859 14.9785 3.02388 14.9736 3.02445 14.9673L4 4.23627C4 3.64856 4.39998 3.13627 4.97014 2.99373L6.66667 2.5696L11.0299 1.47881C11.6668 1.31957 12.3332 1.31956 12.9701 1.4788L17.3333 2.5696L19.0299 2.99373ZM7.16368 12.8348C7.18479 12.9872 7.30718 13.1096 7.55194 13.3544L9.75473 15.5572C10.3506 16.1531 10.6486 16.451 11.0052 16.4663C11.0671 16.4689 11.1291 16.4653 11.1903 16.4554C11.5427 16.3986 11.8038 16.0679 12.3259 15.4064L17.505 8.84614C17.7241 8.5686 17.8336 8.42982 17.8353 8.27338C17.8355 8.24595 17.8334 8.21855 17.8287 8.19151C17.8024 8.03728 17.6723 7.91757 17.4121 7.67814L17.2974 7.57264C17.0141 7.31193 16.8724 7.18157 16.7056 7.17408C16.6765 7.17277 16.6473 7.17424 16.6185 7.17847C16.4532 7.20273 16.3254 7.34668 16.0697 7.63459L10.6667 13.7191L8.82824 12.0143C8.53459 11.742 8.38777 11.6059 8.21585 11.6007C8.18593 11.5999 8.15598 11.6019 8.12646 11.6069C7.95683 11.6353 7.82988 11.7901 7.57599 12.0998L7.49487 12.1988C7.27541 12.4665 7.16569 12.6003 7.15969 12.7541C7.15864 12.7811 7.15997 12.8081 7.16368 12.8348Z" fill="#47B25A"/></svg>