<svg width="400" height="400" viewBox="0 0 400 400" fill="none" xmlns="http://www.w3.org/2000/svg" aria-hidden="true"><title>RizeTrade</title><path d="M356.856 22C367.418 22 375.98 30.5621 375.98 41.1241V358.766C375.98 369.328 367.418 377.89 356.856 377.89H118.807C101.796 377.89 93.2515 357.346 105.245 345.282L231.8 217.992C243.831 205.891 264.486 214.411 264.486 231.476V320.275C264.486 330.837 273.048 339.399 283.61 339.399H309.404C319.966 339.399 328.528 330.837 328.528 320.275V93.4852C328.528 82.9233 319.966 74.3612 309.404 74.3612H81.7939C71.232 74.3612 62.6698 82.9233 62.6698 93.4852V119.401C62.6698 129.963 71.232 138.525 81.7939 138.525H171.748C188.756 138.525 197.302 159.063 185.314 171.128L57.6905 299.58C45.661 311.688 25 303.169 25 286.101V41.1241C25 30.5622 33.5621 22 44.1241 22H356.856Z" fill="url(#logo-gradient-default)"></path><defs><linearGradient id="logo-gradient-default" x1="356.345" y1="41.6353" x2="67.9512" y2="320.21" gradientUnits="userSpaceOnUse"><stop offset="0.629808" stop-color="hsl(0, 0%, 98%)"></stop><stop offset="1" stop-color="hsl(0, 0%, 98%)" stop-opacity="0.57"></stop></linearGradient></defs></svg>